<svg xmlns="http://www.w3.org/2000/svg" viewBox="0 0 320 110" role="img" aria-label="HubOnTrade">
  <defs>
    <linearGradient id="hGray" x1="0%" y1="0%" x2="0%" y2="100%">
      <stop offset="0%" stop-color="#94A3B8"/>
      <stop offset="100%" stop-color="#475569"/>
    </linearGradient>
  </defs>

  <!-- 마크: H + 화살표 (모두 그레이) -->
  <g transform="translate(118, 4)">
    <path d="M6,4 L24,4 L30,8 L30,56 L24,60 L6,60 L0,56 L0,8 Z" fill="url(#hGray)"/>
    <path d="M52,4 L70,4 L76,8 L76,56 L70,60 L52,60 L46,56 L46,8 Z" fill="url(#hGray)"/>
    <path d="M0,28 L76,28 L76,38 L0,38 Z" fill="url(#hGray)"/>
    <path d="M-6,52 Q14,50 30,38 Q50,22 78,12" fill="none" stroke="#64748B" stroke-width="6" stroke-linecap="round"/>
    <path d="M68,6 L84,10 L74,22 Z" fill="#64748B"/>
  </g>

  <g font-family="'Poppins', 'Inter', system-ui, sans-serif" font-weight="800" font-size="32" letter-spacing="-0.5" fill="#94A3B8">
    <text x="46" y="100">Hub</text>
    <text x="119" y="100">On</text>
    <text x="178" y="100">Trade</text>
  </g>
</svg>
